<?xml version="1.0" encoding="UTF-8"?>
<svg id="Layer_1" data-name="Layer 1" xmlns="http://www.w3.org/2000/svg" viewBox="0 0 1357.48 1148.2">
  <defs>
    <style>
      .cls-1 {
        fill: #231f20;
      }
    </style>
  </defs>
  <path class="cls-1" d="M592.68,768.98c-37.12,18.55-111.35,37.12-206.45,37.12C165.86,806.1,0,666.91,0,410.59S165.86,0,408.27,0c97.42,0,158.9,20.87,185.58,34.8l-24.36,82.35c-38.27-18.55-92.78-32.47-157.74-32.47-183.26,0-305.04,117.14-305.04,322.44,0,191.38,110.19,314.32,300.4,314.32,61.47,0,124.11-12.76,164.7-32.47l20.87,80.03Z"/>
  <path class="cls-1" d="M371.66,1148.2c-106.05,0-187.86-29.57-245.42-88.72-57.56-59.14-86.34-141.97-86.34-248.48H181.31c0,67.98,16.88,120.78,50.65,158.4,33.76,37.62,81.47,56.43,143.1,56.43s105.94-18.7,138.34-56.09c32.4-37.39,48.61-90.3,48.61-158.74V169.26h141.4V811.01c0,106.96-29.23,189.9-87.7,248.82-58.46,58.92-139.82,88.38-244.06,88.38Zm-57.11-849.78V169.26h316.8v129.17H314.55Z"/>
  <g>
    <path class="cls-1" d="M784.61,750.52v-50.5h115.12v50.5h-115.12Zm16.29-237.29v-50.5h150.95v50.5h-150.95Zm120.27-96.11c-11.04,0-20.5-3.94-28.37-11.81-7.87-7.87-11.81-17.33-11.81-28.37s3.94-20.72,11.81-28.51c7.87-7.78,17.33-11.67,28.37-11.67s20.72,3.89,28.51,11.67,11.67,17.29,11.67,28.51-3.89,20.5-11.67,28.37-17.29,11.81-28.51,11.81Zm-26.88,333.4V479.02h57.56v271.5h-57.56Zm52.13,0v-50.5h93.94v50.5h-93.94Z"/>
    <path class="cls-1" d="M1085.98,513.23v-50.5h260.64v50.5h-260.64Zm72.22,101.54v-238.92h57.56v238.92h-57.56Zm123.8,141.18c-43.62,0-75.16-9.05-94.62-27.15-19.46-18.1-29.19-47.06-29.19-86.88v-48.87h57.56v46.16c0,22.81,5.57,39.37,16.7,49.68,11.13,10.32,29.46,15.48,54.98,15.48,9.05,0,18.64-.5,28.78-1.49,10.14-1,21.72-2.31,34.75-3.94l6.52,50.5c-12.67,2.17-25.02,3.8-37.06,4.89-12.04,1.09-24.84,1.63-38.42,1.63Z"/>
  </g>
</svg>